<svg width="199" height="88" viewBox="0 0 199 88" fill="none" xmlns="http://www.w3.org/2000/svg">
<mask id="path-1-outside-1_1_10" maskUnits="userSpaceOnUse" x="-0.699997" y="-0.700012" width="200" height="89" fill="black">
<rect fill="white" x="-0.699997" y="-0.700012" width="200" height="89"/>
<path d="M31.344 22.832C31.344 28.938 18.831 32.937 18.702 33.668C18.53 34.7 17.627 35.044 16.724 35.044C15.864 35.044 15.004 34.7 14.832 34.27C14.746 34.012 14.703 33.797 14.703 33.582C14.703 32.421 15.864 31.819 16.638 31.69C19.992 31.217 28.85 26.358 28.85 23.348C28.85 16.21 6.91998 18.618 6.91998 12.168C6.91998 5.67499 19.089 1.41799 23.26 1.41799C26.528 1.41799 26.786 2.70799 27.732 4.04099C27.818 4.12699 27.818 4.21299 27.818 4.34199C27.818 4.77199 27.173 5.28799 26.356 5.28799C25.41 5.28799 24.937 3.91199 23.776 3.91199C19.648 3.91199 9.71498 7.69599 9.71498 11.48C9.71498 16.382 31.215 14.662 31.344 22.832Z"/>
<path d="M60.7822 28.594C60.7822 29.411 59.8362 29.884 58.9332 30.228C58.1162 30.529 56.8692 31.475 53.7302 31.561H53.4722C49.0002 31.561 43.3242 28.809 37.3472 23.692C37.3472 23.692 36.8742 25.842 36.8742 29.54V30.357C36.9172 31.69 37.4332 32.937 37.4332 33.797C37.4332 34.485 37.0892 34.915 35.7992 34.915C34.8962 34.915 34.5952 33.367 34.5952 30.486C34.5952 29.841 34.5952 29.153 34.6382 28.422C35.0252 15.952 38.0352 4.55699 38.7232 4.25599C38.9382 4.16999 39.1962 4.08399 39.4112 4.08399C40.0132 4.08399 40.4862 4.51399 40.7012 5.37399C40.7442 5.50299 40.7442 5.63199 40.7442 5.76099C40.7442 6.70699 39.7552 7.26599 38.7662 12.727C38.3362 15.135 38.0352 16.554 37.7772 18.532C37.7772 18.532 50.5482 14.533 54.4182 14.146C54.8482 14.146 55.1922 14.576 55.1922 15.049C55.1922 15.393 55.0202 15.78 54.6332 16.038C53.8162 16.554 47.8822 16.898 37.8632 21.069C37.8632 21.069 41.1742 24.896 48.3552 28.121C50.6342 29.153 52.5262 29.497 53.9882 29.497C56.6972 29.497 58.0732 28.293 58.2882 27.906C58.5032 27.562 59.0192 27.304 59.4922 27.304C60.0942 27.304 60.6962 27.648 60.7822 28.594Z"/>
<path d="M70.2808 16.038C70.2808 16.038 70.2378 16.038 70.1518 16.038C69.6788 16.038 67.7868 16.081 65.5508 17.242C63.3578 18.36 62.0248 20.123 62.0248 20.123C62.0248 20.123 64.4328 19.994 67.0988 18.36C68.2168 17.715 68.9478 17.242 70.2808 16.038ZM78.7518 23.477C78.7518 24.079 78.3218 24.724 77.7628 25.111C76.8168 25.627 69.8938 31.948 65.0348 31.948C64.3468 31.948 63.7018 31.819 63.1428 31.561C60.3478 30.271 58.3698 26.874 58.3698 23.692C58.3698 23.176 58.4128 22.703 58.5418 22.187C59.5738 17.328 65.2068 13.974 69.7218 13.974C71.1408 13.974 72.3878 14.275 73.4198 14.963C73.5488 15.006 73.5918 15.135 73.5918 15.264C73.5918 16.339 69.9368 19.091 67.4858 20.553C64.8198 22.187 62.1968 22.445 60.9928 22.531C60.9928 22.531 60.8638 23.004 60.8638 23.778C60.8638 24.681 61.0788 26.014 62.0248 27.476C62.7988 28.723 63.7448 29.755 65.4648 29.755H65.6368C69.0338 29.626 75.5698 24.294 75.9998 23.692C76.2578 23.219 76.7308 22.101 77.4618 22.101C77.6768 22.101 77.8488 22.144 78.1068 22.316C78.5368 22.617 78.7518 23.047 78.7518 23.477Z"/>
<path d="M98.3531 13.501C98.3531 14.146 97.8801 14.275 97.3211 14.275C96.8051 14.275 96.2031 14.146 95.8591 14.146C93.1931 14.146 90.2261 14.748 88.6781 15.092C88.6351 15.608 87.7321 22.531 87.7321 28.25C87.7321 28.981 87.7321 29.712 87.7751 30.357C87.7751 30.529 87.9901 31.131 87.9901 31.647C87.9901 32.206 87.7751 32.679 86.9581 32.679H86.7861C85.4961 32.593 85.2811 31.002 85.2811 30.314C85.2811 28.379 85.2811 25.713 85.7541 21.327C86.0551 18.274 86.2271 17.414 86.4421 15.565C86.4421 15.565 84.3351 16.038 82.7871 16.769C82.0561 17.113 80.5941 18.446 79.8201 18.446C79.0891 18.274 78.4871 17.801 78.4871 17.199C78.4871 17.113 78.4871 17.027 78.5301 16.941C78.7451 16.296 78.8311 15.952 81.1961 15.049C83.6471 14.103 84.2061 13.888 86.7861 13.2C86.7861 13.2 87.3881 9.67399 87.8181 4.94399V4.68599C87.8181 4.21299 87.7321 3.61099 87.7321 3.00899C87.7321 2.10599 87.9041 1.33199 88.7211 1.33199C89.5381 1.33199 90.0541 2.14899 90.0541 4.42799C90.0541 5.07299 90.0111 5.84699 89.9251 6.74999C89.6671 9.32999 89.4091 10.018 89.0221 12.813C89.0221 12.813 91.6021 12.254 94.6551 12.254C95.0421 12.254 95.4291 12.297 95.8161 12.297C96.7191 12.34 98.2671 12.297 98.3531 13.501Z"/>
<path d="M118.928 23.692V23.864C118.885 24.251 108.178 31.733 101.169 31.733C99.2773 31.733 97.6433 31.174 96.6113 29.841C96.0523 29.153 95.7943 28.25 95.7943 27.304C95.7943 22.316 102.287 14.834 106.028 14.275C106.286 14.232 106.544 14.232 106.759 14.232C107.791 14.232 108.221 14.662 108.221 15.264C108.221 15.909 107.705 16.726 107.017 17.199C106.845 17.285 106.673 17.328 106.501 17.328C106.071 17.328 105.598 17.113 105.082 17.113C104.953 17.113 104.824 17.113 104.738 17.156C103.749 17.457 98.1593 23.176 98.1593 26.917C98.1593 27.863 98.5033 28.723 99.4493 29.282C99.9653 29.626 100.653 29.755 101.47 29.755C106.888 29.755 117.165 23.004 117.638 22.832C117.767 22.789 117.896 22.746 118.025 22.746C118.541 22.746 118.928 23.219 118.928 23.692Z"/>
<path d="M135.689 24.595C135.689 26.057 135.646 27.519 135.56 28.766V29.11C135.56 29.798 135.646 30.4 135.646 30.83C135.646 31.432 135.474 31.776 134.485 31.819C134.184 31.819 133.969 31.776 133.797 31.647C133.281 31.303 133.152 30.572 133.152 29.798C133.152 29.411 133.152 29.024 133.195 28.68C133.281 27.82 133.324 26.358 133.324 24.81C133.324 21.585 133.066 17.758 132.077 17.199C131.905 17.07 131.647 17.027 131.389 17.027C128.809 17.027 123.434 22.273 122.23 24.853C121.284 26.874 121.112 28.895 121.112 30.056C121.112 30.486 121.155 30.83 121.155 30.959C121.155 31.174 121.198 31.346 121.198 31.518C121.198 33.109 120.338 33.582 119.564 33.582C119.134 33.582 118.704 33.453 118.532 33.238C118.231 32.894 118.102 32.55 118.102 32.163C118.102 31.561 118.403 30.916 118.661 30.357C119.134 29.368 118.618 24.122 119.779 13.501C120.553 6.40599 120.166 2.70799 121.671 2.70799C122.789 2.70799 123.176 3.26699 123.176 4.25599C123.176 5.58899 122.531 7.82499 122.23 11.179C122.015 13.415 121.8 15.866 121.628 18.145C121.499 19.779 121.456 20.725 121.413 22.23C121.413 22.23 127.218 14.662 131.69 14.662C132.077 14.662 132.464 14.705 132.851 14.834C135.173 15.651 135.689 20.252 135.689 24.595Z"/>
<path d="M145.09 15.78V16.038C144.961 17.242 144.058 24.81 144.058 26.487V27.304C144.058 29.239 144.574 29.325 144.574 30.099C144.574 30.314 144.531 30.529 144.445 30.873C144.359 31.217 143.929 31.518 143.413 31.518C143.112 31.518 142.725 31.389 142.381 31.131C141.994 30.83 141.865 29.884 141.865 28.336C141.865 26.272 142.08 23.176 142.295 19.048C142.424 16.683 142.252 14.232 143.757 14.146C144.488 14.146 145.09 14.791 145.09 15.78ZM145.176 1.50399V1.67599C145.133 2.23499 144.574 2.96599 144.015 4.34199C143.37 5.93299 143.714 6.66399 143.241 7.05099C143.069 7.26599 142.768 7.48099 142.467 7.48099C142.295 7.48099 142.166 7.43799 142.037 7.30899C141.822 7.13699 141.693 6.66399 141.693 6.01899C141.693 5.24499 141.908 4.25599 142.424 3.13799C143.327 1.28899 142.983 0.299988 144.101 0.299988C144.703 0.299988 145.176 0.815986 145.176 1.50399Z"/>
<path d="M165.058 32.808C165.058 33.152 164.972 33.453 164.671 33.668C164.542 33.797 164.284 33.883 164.069 33.883C163.209 33.883 162.134 33.109 162.134 31.948C162.134 31.776 162.177 31.561 162.22 31.346C162.263 31.26 162.263 31.131 162.263 30.959C162.263 30.056 161.833 28.035 161.833 24.165L161.876 19.994C161.876 19.478 161.833 15.995 161.317 15.995C160.543 15.995 157.361 21.929 155.426 27.175C154.136 30.658 154.179 31.776 153.663 32.163C153.448 32.249 153.147 32.378 152.846 32.378C152.545 32.378 152.201 32.249 151.9 31.862C151.728 31.561 151.642 31.131 151.642 30.443C151.642 29.067 151.9 26.573 151.986 21.929C152.072 17.887 152.459 14.791 152.545 14.189C152.674 13.458 153.061 13.2 153.491 13.2C154.05 13.2 154.609 13.544 154.867 13.888C154.996 14.06 155.039 14.275 155.039 14.619C155.039 15.565 154.609 17.199 154.609 19.693C154.609 20.94 154.523 21.456 154.523 22.015C154.523 22.23 154.523 22.488 154.566 22.832C154.566 22.832 159.124 12.942 161.79 12.942C161.876 12.942 161.962 12.985 162.005 12.985C164.026 13.415 164.198 17.371 164.198 22.961V27.906C164.198 29.626 164.241 30.4 164.327 30.701C164.628 31.303 165.058 32.12 165.058 32.808Z"/>
<path d="M184.166 38.957C184.166 37.624 183.908 36.334 183.478 35.087C183.478 35.087 174.491 36.377 169.245 42.784C167.611 44.762 166.794 46.525 166.794 48.116C166.794 49.664 167.611 51.04 169.202 52.244C170.32 53.104 171.567 53.448 172.771 53.448C175.953 53.448 179.178 51.04 180.812 48.46C183.048 44.891 184.166 41.795 184.166 38.957ZM180.769 22.359C180.769 22.23 180.726 22.101 180.726 21.972C180.21 19.134 177.501 18.79 177.501 18.79C173.502 22.359 172.212 25.369 172.169 26.229V26.401C172.169 27.218 172.513 28.121 172.513 28.121C172.513 28.121 174.276 27.777 175.523 27.261C177.372 26.444 180.769 24.509 180.769 22.359ZM198.7 34.356C198.7 35.001 197.539 35.259 196.507 35.259H196.12C194.787 35.173 195.045 34.7 194.572 34.098C194.572 34.098 193.927 34.055 192.938 34.055C192.207 34.055 191.261 34.098 190.229 34.141C188.552 34.227 187.219 34.442 185.714 34.614C185.714 34.614 186.359 35.861 186.359 38.312C186.359 40.548 185.8 43.816 183.65 48.073C181.973 51.384 177.845 55.77 172.857 55.77C171.309 55.77 169.675 55.34 167.998 54.265C165.805 52.889 164.515 50.653 164.515 48.116C164.515 46.009 165.375 43.687 167.396 41.494C172.47 35.861 176.469 34.614 182.618 33.152C182.618 33.152 180.984 30.228 177.372 29.927C176.899 29.884 176.512 29.884 176.125 29.884C172.427 29.884 170.965 31.303 169.804 31.303C169.589 31.303 169.374 31.26 169.202 31.174C168.772 30.959 168.428 30.615 168.428 30.228C168.428 30.056 168.471 29.884 168.6 29.712C169.03 29.024 169.589 28.938 170.363 28.68C170.363 28.68 169.847 27.519 169.847 26.229V25.928C169.976 23.95 171.739 22.144 174.663 18.618C174.663 18.618 173.459 17.93 173.459 17.285C173.502 16.812 173.803 16.167 174.405 16.167C174.663 16.167 174.921 16.296 175.265 16.554C175.394 16.64 175.738 16.683 176.211 16.683C178.619 16.683 184.596 15.651 187.047 15.651C187.434 15.651 187.735 15.694 187.907 15.737C188.466 15.909 188.939 16.21 188.939 16.597C188.939 16.855 188.767 17.113 188.38 17.414C188.294 17.457 188.208 17.457 188.079 17.457C187.778 17.457 187.305 17.371 186.488 17.371C185.843 17.371 184.94 17.457 183.822 17.672C182.532 17.93 181.371 18.059 180.597 18.188C180.597 18.188 182.575 19.908 182.79 21.714C182.79 21.929 182.833 22.101 182.833 22.273C182.833 24.681 181.027 26.229 178.791 27.992C178.791 27.992 180.253 28.336 181.758 29.411C183.478 30.615 183.865 31.346 184.811 32.722C184.811 32.722 188.767 32.292 191.734 32.292H192.379C194.529 32.335 197.883 32.464 198.614 34.055C198.657 34.184 198.7 34.27 198.7 34.356Z"/>
<path d="M27.304 69.619C27.304 62.782 18.188 62.309 15.651 62.309C15.264 62.309 15.049 62.309 15.049 62.309C14.447 62.524 13.587 63.642 12.641 63.642H12.469C11.179 63.427 11.179 62.653 10.921 62.696C5.976 66.695 2.708 73.79 2.708 78.692C2.708 80.971 3.396 82.777 4.944 83.594C6.019 84.196 7.223 84.454 8.513 84.454C16.425 84.454 27.132 74.65 27.304 69.92V69.619ZM29.841 69.361V69.662C29.841 76.155 16.468 86.948 8.427 86.948H8.083C6.578 86.905 5.546 86.733 4.471 86.217C1.504 84.841 0.300003 82.089 0.300003 78.864C0.300003 70.479 8.341 58.697 14.361 58.568H14.576C17.758 58.568 18.661 59.987 18.661 59.987C25.756 61.32 29.841 64.33 29.841 69.361Z"/>
<path d="M44.3444 71.468C44.1294 73.016 41.8504 85.013 39.2704 86.217C38.7974 86.432 38.3244 86.561 37.9374 86.561C32.8634 86.561 32.7344 71.167 32.6914 69.576C32.6914 68.544 33.0784 68.2 33.5514 68.2H33.7664C34.8844 68.415 35.0564 69.275 35.0564 69.834C35.0564 70.436 35.0134 70.995 35.0134 71.554C35.0134 78.434 36.5184 83.895 37.9804 83.895C38.2384 83.895 38.5394 83.68 38.8404 83.164C40.9904 79.38 41.7214 72.414 41.7644 71.296C41.7644 70.694 41.8074 69.748 43.1404 69.748C44.2584 69.748 44.3444 71.468 44.3444 71.468Z"/>
<path d="M66.0507 69.619C66.0507 70.049 65.7927 70.479 65.0617 70.651C64.9757 70.694 64.8897 70.694 64.8037 70.694C64.2447 70.694 63.7717 70.307 63.0837 70.307C62.7827 70.307 62.3957 70.393 61.9657 70.651C59.2137 72.199 55.9887 75.897 52.8927 80.584C51.3017 82.992 51.8607 86.303 51.3017 87.034C51.0437 87.378 50.6997 87.507 50.3557 87.507C49.9257 87.507 49.4957 87.292 49.1947 86.991C48.9367 86.733 48.8507 86.346 48.8507 85.787C48.8507 84.497 49.3667 82.304 49.5387 78.993C49.5817 77.875 49.6247 76.929 49.6247 76.069C49.6247 70.694 48.6787 69.791 48.6787 69.275C48.6787 69.189 48.7217 69.146 48.7647 69.06C48.9367 68.802 49.4097 68.286 49.9687 68.286C50.2697 68.286 50.5707 68.415 50.9147 68.716C51.5597 69.318 51.6887 70.307 51.7747 72.93C51.8177 74.435 51.8177 75.252 51.8177 76.198V78.133C51.8177 78.133 54.7847 74.177 57.5367 71.64C59.1277 70.135 60.8907 68.157 63.4707 68.157C64.0727 68.157 64.7177 68.243 65.4487 68.501C65.7067 68.587 66.0507 69.103 66.0507 69.619Z"/>
<path d="M113.946 55.73C113.946 56.16 113.645 56.59 113.043 56.805C112.011 57.192 110.377 56.676 107.582 57.579C104.4 58.611 100.229 59.729 92.5323 63.212C92.5323 63.212 92.2313 66.308 91.8013 69.103L91.3283 72.285C91.3283 72.285 95.8433 69.963 99.4123 68.974C101.863 68.286 104.744 67.641 106.206 67.641C106.593 67.641 106.894 67.684 107.023 67.813C107.238 67.942 107.324 68.157 107.324 68.415C107.324 68.931 106.894 69.619 106.163 69.877C105.217 70.221 104.228 70.049 101.777 70.651C99.3693 71.253 94.9833 72.887 90.9843 75.596C90.9843 75.596 90.5113 80.068 90.5113 82.992C90.5113 83.551 90.5113 84.067 90.5543 84.454C90.6403 85.056 90.8553 85.615 90.8553 86.088C90.8553 86.346 90.7693 86.561 90.5973 86.776C90.3393 87.12 89.8663 87.292 89.4363 87.292C89.0493 87.292 88.6623 87.163 88.4043 86.905C88.3183 86.819 88.2753 86.346 88.2753 85.658C88.2753 83.551 88.6193 79.294 88.6193 76.542C88.6193 76.542 87.6733 76.112 87.6733 75.252C87.6733 74.392 87.9743 74.263 88.8773 73.446C88.8773 73.446 89.1783 70.307 89.3073 68.802L89.6513 64.373C89.6513 64.373 85.0933 66.093 84.2333 66.093C83.4593 65.921 83.1153 65.362 83.1153 64.803C83.1153 64.459 83.2013 64.158 83.3733 63.9C83.7603 63.384 87.5873 62.739 89.6943 61.836C89.6943 61.836 89.6943 61.75 89.6943 61.621C89.6943 61.062 89.7803 59.643 90.5543 59.342C90.7263 59.256 90.8983 59.256 91.0273 59.256C91.8443 59.256 92.3603 60.073 92.4463 60.804C92.4463 60.804 104.056 56.59 106.249 55.988C108.184 55.472 111.28 54.612 112.699 54.612C112.957 54.612 113.215 54.655 113.301 54.741C113.731 54.999 113.946 55.386 113.946 55.73Z"/>
<path d="M120.975 71.468C120.76 73.016 118.481 85.013 115.901 86.217C115.428 86.432 114.955 86.561 114.568 86.561C109.494 86.561 109.365 71.167 109.322 69.576C109.322 68.544 109.709 68.2 110.182 68.2H110.397C111.515 68.415 111.687 69.275 111.687 69.834C111.687 70.436 111.644 70.995 111.644 71.554C111.644 78.434 113.149 83.895 114.611 83.895C114.869 83.895 115.17 83.68 115.471 83.164C117.621 79.38 118.352 72.414 118.395 71.296C118.395 70.694 118.438 69.748 119.771 69.748C120.889 69.748 120.975 71.468 120.975 71.468Z"/>
<path d="M142.982 68.501C142.982 69.146 142.509 69.275 141.95 69.275C141.434 69.275 140.832 69.146 140.488 69.146C137.822 69.146 134.855 69.748 133.307 70.092C133.264 70.608 132.361 77.531 132.361 83.25C132.361 83.981 132.361 84.712 132.404 85.357C132.404 85.529 132.619 86.131 132.619 86.647C132.619 87.206 132.404 87.679 131.587 87.679H131.415C130.125 87.593 129.91 86.002 129.91 85.314C129.91 83.379 129.91 80.713 130.383 76.327C130.684 73.274 130.856 72.414 131.071 70.565C131.071 70.565 128.964 71.038 127.416 71.769C126.685 72.113 125.223 73.446 124.449 73.446C123.718 73.274 123.116 72.801 123.116 72.199C123.116 72.113 123.116 72.027 123.159 71.941C123.374 71.296 123.46 70.952 125.825 70.049C128.276 69.103 128.835 68.888 131.415 68.2C131.415 68.2 132.017 64.674 132.447 59.944V59.686C132.447 59.213 132.361 58.611 132.361 58.009C132.361 57.106 132.533 56.332 133.35 56.332C134.167 56.332 134.683 57.149 134.683 59.428C134.683 60.073 134.64 60.847 134.554 61.75C134.296 64.33 134.038 65.018 133.651 67.813C133.651 67.813 136.231 67.254 139.284 67.254C139.671 67.254 140.058 67.297 140.445 67.297C141.348 67.34 142.896 67.297 142.982 68.501Z"/>
<path d="M154.377 71.468C154.162 73.016 151.883 85.013 149.303 86.217C148.83 86.432 148.357 86.561 147.97 86.561C142.896 86.561 142.767 71.167 142.724 69.576C142.724 68.544 143.111 68.2 143.584 68.2H143.799C144.917 68.415 145.089 69.275 145.089 69.834C145.089 70.436 145.046 70.995 145.046 71.554C145.046 78.434 146.551 83.895 148.013 83.895C148.271 83.895 148.572 83.68 148.873 83.164C151.023 79.38 151.754 72.414 151.797 71.296C151.797 70.694 151.84 69.748 153.173 69.748C154.291 69.748 154.377 71.468 154.377 71.468Z"/>
<path d="M176.084 69.619C176.084 70.049 175.826 70.479 175.095 70.651C175.009 70.694 174.923 70.694 174.837 70.694C174.278 70.694 173.805 70.307 173.117 70.307C172.816 70.307 172.429 70.393 171.999 70.651C169.247 72.199 166.022 75.897 162.926 80.584C161.335 82.992 161.894 86.303 161.335 87.034C161.077 87.378 160.733 87.507 160.389 87.507C159.959 87.507 159.529 87.292 159.228 86.991C158.97 86.733 158.884 86.346 158.884 85.787C158.884 84.497 159.4 82.304 159.572 78.993C159.615 77.875 159.658 76.929 159.658 76.069C159.658 70.694 158.712 69.791 158.712 69.275C158.712 69.189 158.755 69.146 158.798 69.06C158.97 68.802 159.443 68.286 160.002 68.286C160.303 68.286 160.604 68.415 160.948 68.716C161.593 69.318 161.722 70.307 161.808 72.93C161.851 74.435 161.851 75.252 161.851 76.198V78.133C161.851 78.133 164.818 74.177 167.57 71.64C169.161 70.135 170.924 68.157 173.504 68.157C174.106 68.157 174.751 68.243 175.482 68.501C175.74 68.587 176.084 69.103 176.084 69.619Z"/>
<path d="M186.628 71.038C186.628 71.038 186.585 71.038 186.499 71.038C186.026 71.038 184.134 71.081 181.898 72.242C179.705 73.36 178.372 75.123 178.372 75.123C178.372 75.123 180.78 74.994 183.446 73.36C184.564 72.715 185.295 72.242 186.628 71.038ZM195.099 78.477C195.099 79.079 194.669 79.724 194.11 80.111C193.164 80.627 186.241 86.948 181.382 86.948C180.694 86.948 180.049 86.819 179.49 86.561C176.695 85.271 174.717 81.874 174.717 78.692C174.717 78.176 174.76 77.703 174.889 77.187C175.921 72.328 181.554 68.974 186.069 68.974C187.488 68.974 188.735 69.275 189.767 69.963C189.896 70.006 189.939 70.135 189.939 70.264C189.939 71.339 186.284 74.091 183.833 75.553C181.167 77.187 178.544 77.445 177.34 77.531C177.34 77.531 177.211 78.004 177.211 78.778C177.211 79.681 177.426 81.014 178.372 82.476C179.146 83.723 180.092 84.755 181.812 84.755H181.984C185.381 84.626 191.917 79.294 192.347 78.692C192.605 78.219 193.078 77.101 193.809 77.101C194.024 77.101 194.196 77.144 194.454 77.316C194.884 77.617 195.099 78.047 195.099 78.477Z"/>
</mask>
<path d="M31.344 22.832C31.344 28.938 18.831 32.937 18.702 33.668C18.53 34.7 17.627 35.044 16.724 35.044C15.864 35.044 15.004 34.7 14.832 34.27C14.746 34.012 14.703 33.797 14.703 33.582C14.703 32.421 15.864 31.819 16.638 31.69C19.992 31.217 28.85 26.358 28.85 23.348C28.85 16.21 6.91998 18.618 6.91998 12.168C6.91998 5.67499 19.089 1.41799 23.26 1.41799C26.528 1.41799 26.786 2.70799 27.732 4.04099C27.818 4.12699 27.818 4.21299 27.818 4.34199C27.818 4.77199 27.173 5.28799 26.356 5.28799C25.41 5.28799 24.937 3.91199 23.776 3.91199C19.648 3.91199 9.71498 7.69599 9.71498 11.48C9.71498 16.382 31.215 14.662 31.344 22.832Z" fill="black"/>
<path d="M60.7822 28.594C60.7822 29.411 59.8362 29.884 58.9332 30.228C58.1162 30.529 56.8692 31.475 53.7302 31.561H53.4722C49.0002 31.561 43.3242 28.809 37.3472 23.692C37.3472 23.692 36.8742 25.842 36.8742 29.54V30.357C36.9172 31.69 37.4332 32.937 37.4332 33.797C37.4332 34.485 37.0892 34.915 35.7992 34.915C34.8962 34.915 34.5952 33.367 34.5952 30.486C34.5952 29.841 34.5952 29.153 34.6382 28.422C35.0252 15.952 38.0352 4.55699 38.7232 4.25599C38.9382 4.16999 39.1962 4.08399 39.4112 4.08399C40.0132 4.08399 40.4862 4.51399 40.7012 5.37399C40.7442 5.50299 40.7442 5.63199 40.7442 5.76099C40.7442 6.70699 39.7552 7.26599 38.7662 12.727C38.3362 15.135 38.0352 16.554 37.7772 18.532C37.7772 18.532 50.5482 14.533 54.4182 14.146C54.8482 14.146 55.1922 14.576 55.1922 15.049C55.1922 15.393 55.0202 15.78 54.6332 16.038C53.8162 16.554 47.8822 16.898 37.8632 21.069C37.8632 21.069 41.1742 24.896 48.3552 28.121C50.6342 29.153 52.5262 29.497 53.9882 29.497C56.6972 29.497 58.0732 28.293 58.2882 27.906C58.5032 27.562 59.0192 27.304 59.4922 27.304C60.0942 27.304 60.6962 27.648 60.7822 28.594Z" fill="black"/>
<path d="M70.2808 16.038C70.2808 16.038 70.2378 16.038 70.1518 16.038C69.6788 16.038 67.7868 16.081 65.5508 17.242C63.3578 18.36 62.0248 20.123 62.0248 20.123C62.0248 20.123 64.4328 19.994 67.0988 18.36C68.2168 17.715 68.9478 17.242 70.2808 16.038ZM78.7518 23.477C78.7518 24.079 78.3218 24.724 77.7628 25.111C76.8168 25.627 69.8938 31.948 65.0348 31.948C64.3468 31.948 63.7018 31.819 63.1428 31.561C60.3478 30.271 58.3698 26.874 58.3698 23.692C58.3698 23.176 58.4128 22.703 58.5418 22.187C59.5738 17.328 65.2068 13.974 69.7218 13.974C71.1408 13.974 72.3878 14.275 73.4198 14.963C73.5488 15.006 73.5918 15.135 73.5918 15.264C73.5918 16.339 69.9368 19.091 67.4858 20.553C64.8198 22.187 62.1968 22.445 60.9928 22.531C60.9928 22.531 60.8638 23.004 60.8638 23.778C60.8638 24.681 61.0788 26.014 62.0248 27.476C62.7988 28.723 63.7448 29.755 65.4648 29.755H65.6368C69.0338 29.626 75.5698 24.294 75.9998 23.692C76.2578 23.219 76.7308 22.101 77.4618 22.101C77.6768 22.101 77.8488 22.144 78.1068 22.316C78.5368 22.617 78.7518 23.047 78.7518 23.477Z" fill="black"/>
<path d="M98.3531 13.501C98.3531 14.146 97.8801 14.275 97.3211 14.275C96.8051 14.275 96.2031 14.146 95.8591 14.146C93.1931 14.146 90.2261 14.748 88.6781 15.092C88.6351 15.608 87.7321 22.531 87.7321 28.25C87.7321 28.981 87.7321 29.712 87.7751 30.357C87.7751 30.529 87.9901 31.131 87.9901 31.647C87.9901 32.206 87.7751 32.679 86.9581 32.679H86.7861C85.4961 32.593 85.2811 31.002 85.2811 30.314C85.2811 28.379 85.2811 25.713 85.7541 21.327C86.0551 18.274 86.2271 17.414 86.4421 15.565C86.4421 15.565 84.3351 16.038 82.7871 16.769C82.0561 17.113 80.5941 18.446 79.8201 18.446C79.0891 18.274 78.4871 17.801 78.4871 17.199C78.4871 17.113 78.4871 17.027 78.5301 16.941C78.7451 16.296 78.8311 15.952 81.1961 15.049C83.6471 14.103 84.2061 13.888 86.7861 13.2C86.7861 13.2 87.3881 9.67399 87.8181 4.94399V4.68599C87.8181 4.21299 87.7321 3.61099 87.7321 3.00899C87.7321 2.10599 87.9041 1.33199 88.7211 1.33199C89.5381 1.33199 90.0541 2.14899 90.0541 4.42799C90.0541 5.07299 90.0111 5.84699 89.9251 6.74999C89.6671 9.32999 89.4091 10.018 89.0221 12.813C89.0221 12.813 91.6021 12.254 94.6551 12.254C95.0421 12.254 95.4291 12.297 95.8161 12.297C96.7191 12.34 98.2671 12.297 98.3531 13.501Z" fill="black"/>
<path d="M118.928 23.692V23.864C118.885 24.251 108.178 31.733 101.169 31.733C99.2773 31.733 97.6433 31.174 96.6113 29.841C96.0523 29.153 95.7943 28.25 95.7943 27.304C95.7943 22.316 102.287 14.834 106.028 14.275C106.286 14.232 106.544 14.232 106.759 14.232C107.791 14.232 108.221 14.662 108.221 15.264C108.221 15.909 107.705 16.726 107.017 17.199C106.845 17.285 106.673 17.328 106.501 17.328C106.071 17.328 105.598 17.113 105.082 17.113C104.953 17.113 104.824 17.113 104.738 17.156C103.749 17.457 98.1593 23.176 98.1593 26.917C98.1593 27.863 98.5033 28.723 99.4493 29.282C99.9653 29.626 100.653 29.755 101.47 29.755C106.888 29.755 117.165 23.004 117.638 22.832C117.767 22.789 117.896 22.746 118.025 22.746C118.541 22.746 118.928 23.219 118.928 23.692Z" fill="black"/>
<path d="M135.689 24.595C135.689 26.057 135.646 27.519 135.56 28.766V29.11C135.56 29.798 135.646 30.4 135.646 30.83C135.646 31.432 135.474 31.776 134.485 31.819C134.184 31.819 133.969 31.776 133.797 31.647C133.281 31.303 133.152 30.572 133.152 29.798C133.152 29.411 133.152 29.024 133.195 28.68C133.281 27.82 133.324 26.358 133.324 24.81C133.324 21.585 133.066 17.758 132.077 17.199C131.905 17.07 131.647 17.027 131.389 17.027C128.809 17.027 123.434 22.273 122.23 24.853C121.284 26.874 121.112 28.895 121.112 30.056C121.112 30.486 121.155 30.83 121.155 30.959C121.155 31.174 121.198 31.346 121.198 31.518C121.198 33.109 120.338 33.582 119.564 33.582C119.134 33.582 118.704 33.453 118.532 33.238C118.231 32.894 118.102 32.55 118.102 32.163C118.102 31.561 118.403 30.916 118.661 30.357C119.134 29.368 118.618 24.122 119.779 13.501C120.553 6.40599 120.166 2.70799 121.671 2.70799C122.789 2.70799 123.176 3.26699 123.176 4.25599C123.176 5.58899 122.531 7.82499 122.23 11.179C122.015 13.415 121.8 15.866 121.628 18.145C121.499 19.779 121.456 20.725 121.413 22.23C121.413 22.23 127.218 14.662 131.69 14.662C132.077 14.662 132.464 14.705 132.851 14.834C135.173 15.651 135.689 20.252 135.689 24.595Z" fill="black"/>
<path d="M145.09 15.78V16.038C144.961 17.242 144.058 24.81 144.058 26.487V27.304C144.058 29.239 144.574 29.325 144.574 30.099C144.574 30.314 144.531 30.529 144.445 30.873C144.359 31.217 143.929 31.518 143.413 31.518C143.112 31.518 142.725 31.389 142.381 31.131C141.994 30.83 141.865 29.884 141.865 28.336C141.865 26.272 142.08 23.176 142.295 19.048C142.424 16.683 142.252 14.232 143.757 14.146C144.488 14.146 145.09 14.791 145.09 15.78ZM145.176 1.50399V1.67599C145.133 2.23499 144.574 2.96599 144.015 4.34199C143.37 5.93299 143.714 6.66399 143.241 7.05099C143.069 7.26599 142.768 7.48099 142.467 7.48099C142.295 7.48099 142.166 7.43799 142.037 7.30899C141.822 7.13699 141.693 6.66399 141.693 6.01899C141.693 5.24499 141.908 4.25599 142.424 3.13799C143.327 1.28899 142.983 0.299988 144.101 0.299988C144.703 0.299988 145.176 0.815986 145.176 1.50399Z" fill="black"/>
<path d="M165.058 32.808C165.058 33.152 164.972 33.453 164.671 33.668C164.542 33.797 164.284 33.883 164.069 33.883C163.209 33.883 162.134 33.109 162.134 31.948C162.134 31.776 162.177 31.561 162.22 31.346C162.263 31.26 162.263 31.131 162.263 30.959C162.263 30.056 161.833 28.035 161.833 24.165L161.876 19.994C161.876 19.478 161.833 15.995 161.317 15.995C160.543 15.995 157.361 21.929 155.426 27.175C154.136 30.658 154.179 31.776 153.663 32.163C153.448 32.249 153.147 32.378 152.846 32.378C152.545 32.378 152.201 32.249 151.9 31.862C151.728 31.561 151.642 31.131 151.642 30.443C151.642 29.067 151.9 26.573 151.986 21.929C152.072 17.887 152.459 14.791 152.545 14.189C152.674 13.458 153.061 13.2 153.491 13.2C154.05 13.2 154.609 13.544 154.867 13.888C154.996 14.06 155.039 14.275 155.039 14.619C155.039 15.565 154.609 17.199 154.609 19.693C154.609 20.94 154.523 21.456 154.523 22.015C154.523 22.23 154.523 22.488 154.566 22.832C154.566 22.832 159.124 12.942 161.79 12.942C161.876 12.942 161.962 12.985 162.005 12.985C164.026 13.415 164.198 17.371 164.198 22.961V27.906C164.198 29.626 164.241 30.4 164.327 30.701C164.628 31.303 165.058 32.12 165.058 32.808Z" fill="black"/>
<path d="M184.166 38.957C184.166 37.624 183.908 36.334 183.478 35.087C183.478 35.087 174.491 36.377 169.245 42.784C167.611 44.762 166.794 46.525 166.794 48.116C166.794 49.664 167.611 51.04 169.202 52.244C170.32 53.104 171.567 53.448 172.771 53.448C175.953 53.448 179.178 51.04 180.812 48.46C183.048 44.891 184.166 41.795 184.166 38.957ZM180.769 22.359C180.769 22.23 180.726 22.101 180.726 21.972C180.21 19.134 177.501 18.79 177.501 18.79C173.502 22.359 172.212 25.369 172.169 26.229V26.401C172.169 27.218 172.513 28.121 172.513 28.121C172.513 28.121 174.276 27.777 175.523 27.261C177.372 26.444 180.769 24.509 180.769 22.359ZM198.7 34.356C198.7 35.001 197.539 35.259 196.507 35.259H196.12C194.787 35.173 195.045 34.7 194.572 34.098C194.572 34.098 193.927 34.055 192.938 34.055C192.207 34.055 191.261 34.098 190.229 34.141C188.552 34.227 187.219 34.442 185.714 34.614C185.714 34.614 186.359 35.861 186.359 38.312C186.359 40.548 185.8 43.816 183.65 48.073C181.973 51.384 177.845 55.77 172.857 55.77C171.309 55.77 169.675 55.34 167.998 54.265C165.805 52.889 164.515 50.653 164.515 48.116C164.515 46.009 165.375 43.687 167.396 41.494C172.47 35.861 176.469 34.614 182.618 33.152C182.618 33.152 180.984 30.228 177.372 29.927C176.899 29.884 176.512 29.884 176.125 29.884C172.427 29.884 170.965 31.303 169.804 31.303C169.589 31.303 169.374 31.26 169.202 31.174C168.772 30.959 168.428 30.615 168.428 30.228C168.428 30.056 168.471 29.884 168.6 29.712C169.03 29.024 169.589 28.938 170.363 28.68C170.363 28.68 169.847 27.519 169.847 26.229V25.928C169.976 23.95 171.739 22.144 174.663 18.618C174.663 18.618 173.459 17.93 173.459 17.285C173.502 16.812 173.803 16.167 174.405 16.167C174.663 16.167 174.921 16.296 175.265 16.554C175.394 16.64 175.738 16.683 176.211 16.683C178.619 16.683 184.596 15.651 187.047 15.651C187.434 15.651 187.735 15.694 187.907 15.737C188.466 15.909 188.939 16.21 188.939 16.597C188.939 16.855 188.767 17.113 188.38 17.414C188.294 17.457 188.208 17.457 188.079 17.457C187.778 17.457 187.305 17.371 186.488 17.371C185.843 17.371 184.94 17.457 183.822 17.672C182.532 17.93 181.371 18.059 180.597 18.188C180.597 18.188 182.575 19.908 182.79 21.714C182.79 21.929 182.833 22.101 182.833 22.273C182.833 24.681 181.027 26.229 178.791 27.992C178.791 27.992 180.253 28.336 181.758 29.411C183.478 30.615 183.865 31.346 184.811 32.722C184.811 32.722 188.767 32.292 191.734 32.292H192.379C194.529 32.335 197.883 32.464 198.614 34.055C198.657 34.184 198.7 34.27 198.7 34.356Z" fill="black"/>
<path d="M27.304 69.619C27.304 62.782 18.188 62.309 15.651 62.309C15.264 62.309 15.049 62.309 15.049 62.309C14.447 62.524 13.587 63.642 12.641 63.642H12.469C11.179 63.427 11.179 62.653 10.921 62.696C5.976 66.695 2.708 73.79 2.708 78.692C2.708 80.971 3.396 82.777 4.944 83.594C6.019 84.196 7.223 84.454 8.513 84.454C16.425 84.454 27.132 74.65 27.304 69.92V69.619ZM29.841 69.361V69.662C29.841 76.155 16.468 86.948 8.427 86.948H8.083C6.578 86.905 5.546 86.733 4.471 86.217C1.504 84.841 0.300003 82.089 0.300003 78.864C0.300003 70.479 8.341 58.697 14.361 58.568H14.576C17.758 58.568 18.661 59.987 18.661 59.987C25.756 61.32 29.841 64.33 29.841 69.361Z" fill="black"/>
<path d="M44.3444 71.468C44.1294 73.016 41.8504 85.013 39.2704 86.217C38.7974 86.432 38.3244 86.561 37.9374 86.561C32.8634 86.561 32.7344 71.167 32.6914 69.576C32.6914 68.544 33.0784 68.2 33.5514 68.2H33.7664C34.8844 68.415 35.0564 69.275 35.0564 69.834C35.0564 70.436 35.0134 70.995 35.0134 71.554C35.0134 78.434 36.5184 83.895 37.9804 83.895C38.2384 83.895 38.5394 83.68 38.8404 83.164C40.9904 79.38 41.7214 72.414 41.7644 71.296C41.7644 70.694 41.8074 69.748 43.1404 69.748C44.2584 69.748 44.3444 71.468 44.3444 71.468Z" fill="black"/>
<path d="M66.0507 69.619C66.0507 70.049 65.7927 70.479 65.0617 70.651C64.9757 70.694 64.8897 70.694 64.8037 70.694C64.2447 70.694 63.7717 70.307 63.0837 70.307C62.7827 70.307 62.3957 70.393 61.9657 70.651C59.2137 72.199 55.9887 75.897 52.8927 80.584C51.3017 82.992 51.8607 86.303 51.3017 87.034C51.0437 87.378 50.6997 87.507 50.3557 87.507C49.9257 87.507 49.4957 87.292 49.1947 86.991C48.9367 86.733 48.8507 86.346 48.8507 85.787C48.8507 84.497 49.3667 82.304 49.5387 78.993C49.5817 77.875 49.6247 76.929 49.6247 76.069C49.6247 70.694 48.6787 69.791 48.6787 69.275C48.6787 69.189 48.7217 69.146 48.7647 69.06C48.9367 68.802 49.4097 68.286 49.9687 68.286C50.2697 68.286 50.5707 68.415 50.9147 68.716C51.5597 69.318 51.6887 70.307 51.7747 72.93C51.8177 74.435 51.8177 75.252 51.8177 76.198V78.133C51.8177 78.133 54.7847 74.177 57.5367 71.64C59.1277 70.135 60.8907 68.157 63.4707 68.157C64.0727 68.157 64.7177 68.243 65.4487 68.501C65.7067 68.587 66.0507 69.103 66.0507 69.619Z" fill="black"/>
<path d="M113.946 55.73C113.946 56.16 113.645 56.59 113.043 56.805C112.011 57.192 110.377 56.676 107.582 57.579C104.4 58.611 100.229 59.729 92.5323 63.212C92.5323 63.212 92.2313 66.308 91.8013 69.103L91.3283 72.285C91.3283 72.285 95.8433 69.963 99.4123 68.974C101.863 68.286 104.744 67.641 106.206 67.641C106.593 67.641 106.894 67.684 107.023 67.813C107.238 67.942 107.324 68.157 107.324 68.415C107.324 68.931 106.894 69.619 106.163 69.877C105.217 70.221 104.228 70.049 101.777 70.651C99.3693 71.253 94.9833 72.887 90.9843 75.596C90.9843 75.596 90.5113 80.068 90.5113 82.992C90.5113 83.551 90.5113 84.067 90.5543 84.454C90.6403 85.056 90.8553 85.615 90.8553 86.088C90.8553 86.346 90.7693 86.561 90.5973 86.776C90.3393 87.12 89.8663 87.292 89.4363 87.292C89.0493 87.292 88.6623 87.163 88.4043 86.905C88.3183 86.819 88.2753 86.346 88.2753 85.658C88.2753 83.551 88.6193 79.294 88.6193 76.542C88.6193 76.542 87.6733 76.112 87.6733 75.252C87.6733 74.392 87.9743 74.263 88.8773 73.446C88.8773 73.446 89.1783 70.307 89.3073 68.802L89.6513 64.373C89.6513 64.373 85.0933 66.093 84.2333 66.093C83.4593 65.921 83.1153 65.362 83.1153 64.803C83.1153 64.459 83.2013 64.158 83.3733 63.9C83.7603 63.384 87.5873 62.739 89.6943 61.836C89.6943 61.836 89.6943 61.75 89.6943 61.621C89.6943 61.062 89.7803 59.643 90.5543 59.342C90.7263 59.256 90.8983 59.256 91.0273 59.256C91.8443 59.256 92.3603 60.073 92.4463 60.804C92.4463 60.804 104.056 56.59 106.249 55.988C108.184 55.472 111.28 54.612 112.699 54.612C112.957 54.612 113.215 54.655 113.301 54.741C113.731 54.999 113.946 55.386 113.946 55.73Z" fill="black"/>
<path d="M120.975 71.468C120.76 73.016 118.481 85.013 115.901 86.217C115.428 86.432 114.955 86.561 114.568 86.561C109.494 86.561 109.365 71.167 109.322 69.576C109.322 68.544 109.709 68.2 110.182 68.2H110.397C111.515 68.415 111.687 69.275 111.687 69.834C111.687 70.436 111.644 70.995 111.644 71.554C111.644 78.434 113.149 83.895 114.611 83.895C114.869 83.895 115.17 83.68 115.471 83.164C117.621 79.38 118.352 72.414 118.395 71.296C118.395 70.694 118.438 69.748 119.771 69.748C120.889 69.748 120.975 71.468 120.975 71.468Z" fill="black"/>
<path d="M142.982 68.501C142.982 69.146 142.509 69.275 141.95 69.275C141.434 69.275 140.832 69.146 140.488 69.146C137.822 69.146 134.855 69.748 133.307 70.092C133.264 70.608 132.361 77.531 132.361 83.25C132.361 83.981 132.361 84.712 132.404 85.357C132.404 85.529 132.619 86.131 132.619 86.647C132.619 87.206 132.404 87.679 131.587 87.679H131.415C130.125 87.593 129.91 86.002 129.91 85.314C129.91 83.379 129.91 80.713 130.383 76.327C130.684 73.274 130.856 72.414 131.071 70.565C131.071 70.565 128.964 71.038 127.416 71.769C126.685 72.113 125.223 73.446 124.449 73.446C123.718 73.274 123.116 72.801 123.116 72.199C123.116 72.113 123.116 72.027 123.159 71.941C123.374 71.296 123.46 70.952 125.825 70.049C128.276 69.103 128.835 68.888 131.415 68.2C131.415 68.2 132.017 64.674 132.447 59.944V59.686C132.447 59.213 132.361 58.611 132.361 58.009C132.361 57.106 132.533 56.332 133.35 56.332C134.167 56.332 134.683 57.149 134.683 59.428C134.683 60.073 134.64 60.847 134.554 61.75C134.296 64.33 134.038 65.018 133.651 67.813C133.651 67.813 136.231 67.254 139.284 67.254C139.671 67.254 140.058 67.297 140.445 67.297C141.348 67.34 142.896 67.297 142.982 68.501Z" fill="black"/>
<path d="M154.377 71.468C154.162 73.016 151.883 85.013 149.303 86.217C148.83 86.432 148.357 86.561 147.97 86.561C142.896 86.561 142.767 71.167 142.724 69.576C142.724 68.544 143.111 68.2 143.584 68.2H143.799C144.917 68.415 145.089 69.275 145.089 69.834C145.089 70.436 145.046 70.995 145.046 71.554C145.046 78.434 146.551 83.895 148.013 83.895C148.271 83.895 148.572 83.68 148.873 83.164C151.023 79.38 151.754 72.414 151.797 71.296C151.797 70.694 151.84 69.748 153.173 69.748C154.291 69.748 154.377 71.468 154.377 71.468Z" fill="black"/>
<path d="M176.084 69.619C176.084 70.049 175.826 70.479 175.095 70.651C175.009 70.694 174.923 70.694 174.837 70.694C174.278 70.694 173.805 70.307 173.117 70.307C172.816 70.307 172.429 70.393 171.999 70.651C169.247 72.199 166.022 75.897 162.926 80.584C161.335 82.992 161.894 86.303 161.335 87.034C161.077 87.378 160.733 87.507 160.389 87.507C159.959 87.507 159.529 87.292 159.228 86.991C158.97 86.733 158.884 86.346 158.884 85.787C158.884 84.497 159.4 82.304 159.572 78.993C159.615 77.875 159.658 76.929 159.658 76.069C159.658 70.694 158.712 69.791 158.712 69.275C158.712 69.189 158.755 69.146 158.798 69.06C158.97 68.802 159.443 68.286 160.002 68.286C160.303 68.286 160.604 68.415 160.948 68.716C161.593 69.318 161.722 70.307 161.808 72.93C161.851 74.435 161.851 75.252 161.851 76.198V78.133C161.851 78.133 164.818 74.177 167.57 71.64C169.161 70.135 170.924 68.157 173.504 68.157C174.106 68.157 174.751 68.243 175.482 68.501C175.74 68.587 176.084 69.103 176.084 69.619Z" fill="black"/>
<path d="M186.628 71.038C186.628 71.038 186.585 71.038 186.499 71.038C186.026 71.038 184.134 71.081 181.898 72.242C179.705 73.36 178.372 75.123 178.372 75.123C178.372 75.123 180.78 74.994 183.446 73.36C184.564 72.715 185.295 72.242 186.628 71.038ZM195.099 78.477C195.099 79.079 194.669 79.724 194.11 80.111C193.164 80.627 186.241 86.948 181.382 86.948C180.694 86.948 180.049 86.819 179.49 86.561C176.695 85.271 174.717 81.874 174.717 78.692C174.717 78.176 174.76 77.703 174.889 77.187C175.921 72.328 181.554 68.974 186.069 68.974C187.488 68.974 188.735 69.275 189.767 69.963C189.896 70.006 189.939 70.135 189.939 70.264C189.939 71.339 186.284 74.091 183.833 75.553C181.167 77.187 178.544 77.445 177.34 77.531C177.34 77.531 177.211 78.004 177.211 78.778C177.211 79.681 177.426 81.014 178.372 82.476C179.146 83.723 180.092 84.755 181.812 84.755H181.984C185.381 84.626 191.917 79.294 192.347 78.692C192.605 78.219 193.078 77.101 193.809 77.101C194.024 77.101 194.196 77.144 194.454 77.316C194.884 77.617 195.099 78.047 195.099 78.477Z" fill="black"/>
<path d="M31.344 22.832C31.344 28.938 18.831 32.937 18.702 33.668C18.53 34.7 17.627 35.044 16.724 35.044C15.864 35.044 15.004 34.7 14.832 34.27C14.746 34.012 14.703 33.797 14.703 33.582C14.703 32.421 15.864 31.819 16.638 31.69C19.992 31.217 28.85 26.358 28.85 23.348C28.85 16.21 6.91998 18.618 6.91998 12.168C6.91998 5.67499 19.089 1.41799 23.26 1.41799C26.528 1.41799 26.786 2.70799 27.732 4.04099C27.818 4.12699 27.818 4.21299 27.818 4.34199C27.818 4.77199 27.173 5.28799 26.356 5.28799C25.41 5.28799 24.937 3.91199 23.776 3.91199C19.648 3.91199 9.71498 7.69599 9.71498 11.48C9.71498 16.382 31.215 14.662 31.344 22.832Z" stroke="black" stroke-width="0.6" stroke-linejoin="round" mask="url(#path-1-outside-1_1_10)"/>
<path d="M60.7822 28.594C60.7822 29.411 59.8362 29.884 58.9332 30.228C58.1162 30.529 56.8692 31.475 53.7302 31.561H53.4722C49.0002 31.561 43.3242 28.809 37.3472 23.692C37.3472 23.692 36.8742 25.842 36.8742 29.54V30.357C36.9172 31.69 37.4332 32.937 37.4332 33.797C37.4332 34.485 37.0892 34.915 35.7992 34.915C34.8962 34.915 34.5952 33.367 34.5952 30.486C34.5952 29.841 34.5952 29.153 34.6382 28.422C35.0252 15.952 38.0352 4.55699 38.7232 4.25599C38.9382 4.16999 39.1962 4.08399 39.4112 4.08399C40.0132 4.08399 40.4862 4.51399 40.7012 5.37399C40.7442 5.50299 40.7442 5.63199 40.7442 5.76099C40.7442 6.70699 39.7552 7.26599 38.7662 12.727C38.3362 15.135 38.0352 16.554 37.7772 18.532C37.7772 18.532 50.5482 14.533 54.4182 14.146C54.8482 14.146 55.1922 14.576 55.1922 15.049C55.1922 15.393 55.0202 15.78 54.6332 16.038C53.8162 16.554 47.8822 16.898 37.8632 21.069C37.8632 21.069 41.1742 24.896 48.3552 28.121C50.6342 29.153 52.5262 29.497 53.9882 29.497C56.6972 29.497 58.0732 28.293 58.2882 27.906C58.5032 27.562 59.0192 27.304 59.4922 27.304C60.0942 27.304 60.6962 27.648 60.7822 28.594Z" stroke="black" stroke-width="0.6" stroke-linejoin="round" mask="url(#path-1-outside-1_1_10)"/>
<path d="M70.2808 16.038C70.2808 16.038 70.2378 16.038 70.1518 16.038C69.6788 16.038 67.7868 16.081 65.5508 17.242C63.3578 18.36 62.0248 20.123 62.0248 20.123C62.0248 20.123 64.4328 19.994 67.0988 18.36C68.2168 17.715 68.9478 17.242 70.2808 16.038ZM78.7518 23.477C78.7518 24.079 78.3218 24.724 77.7628 25.111C76.8168 25.627 69.8938 31.948 65.0348 31.948C64.3468 31.948 63.7018 31.819 63.1428 31.561C60.3478 30.271 58.3698 26.874 58.3698 23.692C58.3698 23.176 58.4128 22.703 58.5418 22.187C59.5738 17.328 65.2068 13.974 69.7218 13.974C71.1408 13.974 72.3878 14.275 73.4198 14.963C73.5488 15.006 73.5918 15.135 73.5918 15.264C73.5918 16.339 69.9368 19.091 67.4858 20.553C64.8198 22.187 62.1968 22.445 60.9928 22.531C60.9928 22.531 60.8638 23.004 60.8638 23.778C60.8638 24.681 61.0788 26.014 62.0248 27.476C62.7988 28.723 63.7448 29.755 65.4648 29.755H65.6368C69.0338 29.626 75.5698 24.294 75.9998 23.692C76.2578 23.219 76.7308 22.101 77.4618 22.101C77.6768 22.101 77.8488 22.144 78.1068 22.316C78.5368 22.617 78.7518 23.047 78.7518 23.477Z" stroke="black" stroke-width="0.6" stroke-linejoin="round" mask="url(#path-1-outside-1_1_10)"/>
<path d="M98.3531 13.501C98.3531 14.146 97.8801 14.275 97.3211 14.275C96.8051 14.275 96.2031 14.146 95.8591 14.146C93.1931 14.146 90.2261 14.748 88.6781 15.092C88.6351 15.608 87.7321 22.531 87.7321 28.25C87.7321 28.981 87.7321 29.712 87.7751 30.357C87.7751 30.529 87.9901 31.131 87.9901 31.647C87.9901 32.206 87.7751 32.679 86.9581 32.679H86.7861C85.4961 32.593 85.2811 31.002 85.2811 30.314C85.2811 28.379 85.2811 25.713 85.7541 21.327C86.0551 18.274 86.2271 17.414 86.4421 15.565C86.4421 15.565 84.3351 16.038 82.7871 16.769C82.0561 17.113 80.5941 18.446 79.8201 18.446C79.0891 18.274 78.4871 17.801 78.4871 17.199C78.4871 17.113 78.4871 17.027 78.5301 16.941C78.7451 16.296 78.8311 15.952 81.1961 15.049C83.6471 14.103 84.2061 13.888 86.7861 13.2C86.7861 13.2 87.3881 9.67399 87.8181 4.94399V4.68599C87.8181 4.21299 87.7321 3.61099 87.7321 3.00899C87.7321 2.10599 87.9041 1.33199 88.7211 1.33199C89.5381 1.33199 90.0541 2.14899 90.0541 4.42799C90.0541 5.07299 90.0111 5.84699 89.9251 6.74999C89.6671 9.32999 89.4091 10.018 89.0221 12.813C89.0221 12.813 91.6021 12.254 94.6551 12.254C95.0421 12.254 95.4291 12.297 95.8161 12.297C96.7191 12.34 98.2671 12.297 98.3531 13.501Z" stroke="black" stroke-width="0.6" stroke-linejoin="round" mask="url(#path-1-outside-1_1_10)"/>
<path d="M118.928 23.692V23.864C118.885 24.251 108.178 31.733 101.169 31.733C99.2773 31.733 97.6433 31.174 96.6113 29.841C96.0523 29.153 95.7943 28.25 95.7943 27.304C95.7943 22.316 102.287 14.834 106.028 14.275C106.286 14.232 106.544 14.232 106.759 14.232C107.791 14.232 108.221 14.662 108.221 15.264C108.221 15.909 107.705 16.726 107.017 17.199C106.845 17.285 106.673 17.328 106.501 17.328C106.071 17.328 105.598 17.113 105.082 17.113C104.953 17.113 104.824 17.113 104.738 17.156C103.749 17.457 98.1593 23.176 98.1593 26.917C98.1593 27.863 98.5033 28.723 99.4493 29.282C99.9653 29.626 100.653 29.755 101.47 29.755C106.888 29.755 117.165 23.004 117.638 22.832C117.767 22.789 117.896 22.746 118.025 22.746C118.541 22.746 118.928 23.219 118.928 23.692Z" stroke="black" stroke-width="0.6" stroke-linejoin="round" mask="url(#path-1-outside-1_1_10)"/>
<path d="M135.689 24.595C135.689 26.057 135.646 27.519 135.56 28.766V29.11C135.56 29.798 135.646 30.4 135.646 30.83C135.646 31.432 135.474 31.776 134.485 31.819C134.184 31.819 133.969 31.776 133.797 31.647C133.281 31.303 133.152 30.572 133.152 29.798C133.152 29.411 133.152 29.024 133.195 28.68C133.281 27.82 133.324 26.358 133.324 24.81C133.324 21.585 133.066 17.758 132.077 17.199C131.905 17.07 131.647 17.027 131.389 17.027C128.809 17.027 123.434 22.273 122.23 24.853C121.284 26.874 121.112 28.895 121.112 30.056C121.112 30.486 121.155 30.83 121.155 30.959C121.155 31.174 121.198 31.346 121.198 31.518C121.198 33.109 120.338 33.582 119.564 33.582C119.134 33.582 118.704 33.453 118.532 33.238C118.231 32.894 118.102 32.55 118.102 32.163C118.102 31.561 118.403 30.916 118.661 30.357C119.134 29.368 118.618 24.122 119.779 13.501C120.553 6.40599 120.166 2.70799 121.671 2.70799C122.789 2.70799 123.176 3.26699 123.176 4.25599C123.176 5.58899 122.531 7.82499 122.23 11.179C122.015 13.415 121.8 15.866 121.628 18.145C121.499 19.779 121.456 20.725 121.413 22.23C121.413 22.23 127.218 14.662 131.69 14.662C132.077 14.662 132.464 14.705 132.851 14.834C135.173 15.651 135.689 20.252 135.689 24.595Z" stroke="black" stroke-width="0.6" stroke-linejoin="round" mask="url(#path-1-outside-1_1_10)"/>
<path d="M145.09 15.78V16.038C144.961 17.242 144.058 24.81 144.058 26.487V27.304C144.058 29.239 144.574 29.325 144.574 30.099C144.574 30.314 144.531 30.529 144.445 30.873C144.359 31.217 143.929 31.518 143.413 31.518C143.112 31.518 142.725 31.389 142.381 31.131C141.994 30.83 141.865 29.884 141.865 28.336C141.865 26.272 142.08 23.176 142.295 19.048C142.424 16.683 142.252 14.232 143.757 14.146C144.488 14.146 145.09 14.791 145.09 15.78ZM145.176 1.50399V1.67599C145.133 2.23499 144.574 2.96599 144.015 4.34199C143.37 5.93299 143.714 6.66399 143.241 7.05099C143.069 7.26599 142.768 7.48099 142.467 7.48099C142.295 7.48099 142.166 7.43799 142.037 7.30899C141.822 7.13699 141.693 6.66399 141.693 6.01899C141.693 5.24499 141.908 4.25599 142.424 3.13799C143.327 1.28899 142.983 0.299988 144.101 0.299988C144.703 0.299988 145.176 0.815986 145.176 1.50399Z" stroke="black" stroke-width="0.6" stroke-linejoin="round" mask="url(#path-1-outside-1_1_10)"/>
<path d="M165.058 32.808C165.058 33.152 164.972 33.453 164.671 33.668C164.542 33.797 164.284 33.883 164.069 33.883C163.209 33.883 162.134 33.109 162.134 31.948C162.134 31.776 162.177 31.561 162.22 31.346C162.263 31.26 162.263 31.131 162.263 30.959C162.263 30.056 161.833 28.035 161.833 24.165L161.876 19.994C161.876 19.478 161.833 15.995 161.317 15.995C160.543 15.995 157.361 21.929 155.426 27.175C154.136 30.658 154.179 31.776 153.663 32.163C153.448 32.249 153.147 32.378 152.846 32.378C152.545 32.378 152.201 32.249 151.9 31.862C151.728 31.561 151.642 31.131 151.642 30.443C151.642 29.067 151.9 26.573 151.986 21.929C152.072 17.887 152.459 14.791 152.545 14.189C152.674 13.458 153.061 13.2 153.491 13.2C154.05 13.2 154.609 13.544 154.867 13.888C154.996 14.06 155.039 14.275 155.039 14.619C155.039 15.565 154.609 17.199 154.609 19.693C154.609 20.94 154.523 21.456 154.523 22.015C154.523 22.23 154.523 22.488 154.566 22.832C154.566 22.832 159.124 12.942 161.79 12.942C161.876 12.942 161.962 12.985 162.005 12.985C164.026 13.415 164.198 17.371 164.198 22.961V27.906C164.198 29.626 164.241 30.4 164.327 30.701C164.628 31.303 165.058 32.12 165.058 32.808Z" stroke="black" stroke-width="0.6" stroke-linejoin="round" mask="url(#path-1-outside-1_1_10)"/>
<path d="M184.166 38.957C184.166 37.624 183.908 36.334 183.478 35.087C183.478 35.087 174.491 36.377 169.245 42.784C167.611 44.762 166.794 46.525 166.794 48.116C166.794 49.664 167.611 51.04 169.202 52.244C170.32 53.104 171.567 53.448 172.771 53.448C175.953 53.448 179.178 51.04 180.812 48.46C183.048 44.891 184.166 41.795 184.166 38.957ZM180.769 22.359C180.769 22.23 180.726 22.101 180.726 21.972C180.21 19.134 177.501 18.79 177.501 18.79C173.502 22.359 172.212 25.369 172.169 26.229V26.401C172.169 27.218 172.513 28.121 172.513 28.121C172.513 28.121 174.276 27.777 175.523 27.261C177.372 26.444 180.769 24.509 180.769 22.359ZM198.7 34.356C198.7 35.001 197.539 35.259 196.507 35.259H196.12C194.787 35.173 195.045 34.7 194.572 34.098C194.572 34.098 193.927 34.055 192.938 34.055C192.207 34.055 191.261 34.098 190.229 34.141C188.552 34.227 187.219 34.442 185.714 34.614C185.714 34.614 186.359 35.861 186.359 38.312C186.359 40.548 185.8 43.816 183.65 48.073C181.973 51.384 177.845 55.77 172.857 55.77C171.309 55.77 169.675 55.34 167.998 54.265C165.805 52.889 164.515 50.653 164.515 48.116C164.515 46.009 165.375 43.687 167.396 41.494C172.47 35.861 176.469 34.614 182.618 33.152C182.618 33.152 180.984 30.228 177.372 29.927C176.899 29.884 176.512 29.884 176.125 29.884C172.427 29.884 170.965 31.303 169.804 31.303C169.589 31.303 169.374 31.26 169.202 31.174C168.772 30.959 168.428 30.615 168.428 30.228C168.428 30.056 168.471 29.884 168.6 29.712C169.03 29.024 169.589 28.938 170.363 28.68C170.363 28.68 169.847 27.519 169.847 26.229V25.928C169.976 23.95 171.739 22.144 174.663 18.618C174.663 18.618 173.459 17.93 173.459 17.285C173.502 16.812 173.803 16.167 174.405 16.167C174.663 16.167 174.921 16.296 175.265 16.554C175.394 16.64 175.738 16.683 176.211 16.683C178.619 16.683 184.596 15.651 187.047 15.651C187.434 15.651 187.735 15.694 187.907 15.737C188.466 15.909 188.939 16.21 188.939 16.597C188.939 16.855 188.767 17.113 188.38 17.414C188.294 17.457 188.208 17.457 188.079 17.457C187.778 17.457 187.305 17.371 186.488 17.371C185.843 17.371 184.94 17.457 183.822 17.672C182.532 17.93 181.371 18.059 180.597 18.188C180.597 18.188 182.575 19.908 182.79 21.714C182.79 21.929 182.833 22.101 182.833 22.273C182.833 24.681 181.027 26.229 178.791 27.992C178.791 27.992 180.253 28.336 181.758 29.411C183.478 30.615 183.865 31.346 184.811 32.722C184.811 32.722 188.767 32.292 191.734 32.292H192.379C194.529 32.335 197.883 32.464 198.614 34.055C198.657 34.184 198.7 34.27 198.7 34.356Z" stroke="black" stroke-width="0.6" stroke-linejoin="round" mask="url(#path-1-outside-1_1_10)"/>
<path d="M27.304 69.619C27.304 62.782 18.188 62.309 15.651 62.309C15.264 62.309 15.049 62.309 15.049 62.309C14.447 62.524 13.587 63.642 12.641 63.642H12.469C11.179 63.427 11.179 62.653 10.921 62.696C5.976 66.695 2.708 73.79 2.708 78.692C2.708 80.971 3.396 82.777 4.944 83.594C6.019 84.196 7.223 84.454 8.513 84.454C16.425 84.454 27.132 74.65 27.304 69.92V69.619ZM29.841 69.361V69.662C29.841 76.155 16.468 86.948 8.427 86.948H8.083C6.578 86.905 5.546 86.733 4.471 86.217C1.504 84.841 0.300003 82.089 0.300003 78.864C0.300003 70.479 8.341 58.697 14.361 58.568H14.576C17.758 58.568 18.661 59.987 18.661 59.987C25.756 61.32 29.841 64.33 29.841 69.361Z" stroke="black" stroke-width="0.6" stroke-linejoin="round" mask="url(#path-1-outside-1_1_10)"/>
<path d="M44.3444 71.468C44.1294 73.016 41.8504 85.013 39.2704 86.217C38.7974 86.432 38.3244 86.561 37.9374 86.561C32.8634 86.561 32.7344 71.167 32.6914 69.576C32.6914 68.544 33.0784 68.2 33.5514 68.2H33.7664C34.8844 68.415 35.0564 69.275 35.0564 69.834C35.0564 70.436 35.0134 70.995 35.0134 71.554C35.0134 78.434 36.5184 83.895 37.9804 83.895C38.2384 83.895 38.5394 83.68 38.8404 83.164C40.9904 79.38 41.7214 72.414 41.7644 71.296C41.7644 70.694 41.8074 69.748 43.1404 69.748C44.2584 69.748 44.3444 71.468 44.3444 71.468Z" stroke="black" stroke-width="0.6" stroke-linejoin="round" mask="url(#path-1-outside-1_1_10)"/>
<path d="M66.0507 69.619C66.0507 70.049 65.7927 70.479 65.0617 70.651C64.9757 70.694 64.8897 70.694 64.8037 70.694C64.2447 70.694 63.7717 70.307 63.0837 70.307C62.7827 70.307 62.3957 70.393 61.9657 70.651C59.2137 72.199 55.9887 75.897 52.8927 80.584C51.3017 82.992 51.8607 86.303 51.3017 87.034C51.0437 87.378 50.6997 87.507 50.3557 87.507C49.9257 87.507 49.4957 87.292 49.1947 86.991C48.9367 86.733 48.8507 86.346 48.8507 85.787C48.8507 84.497 49.3667 82.304 49.5387 78.993C49.5817 77.875 49.6247 76.929 49.6247 76.069C49.6247 70.694 48.6787 69.791 48.6787 69.275C48.6787 69.189 48.7217 69.146 48.7647 69.06C48.9367 68.802 49.4097 68.286 49.9687 68.286C50.2697 68.286 50.5707 68.415 50.9147 68.716C51.5597 69.318 51.6887 70.307 51.7747 72.93C51.8177 74.435 51.8177 75.252 51.8177 76.198V78.133C51.8177 78.133 54.7847 74.177 57.5367 71.64C59.1277 70.135 60.8907 68.157 63.4707 68.157C64.0727 68.157 64.7177 68.243 65.4487 68.501C65.7067 68.587 66.0507 69.103 66.0507 69.619Z" stroke="black" stroke-width="0.6" stroke-linejoin="round" mask="url(#path-1-outside-1_1_10)"/>
<path d="M113.946 55.73C113.946 56.16 113.645 56.59 113.043 56.805C112.011 57.192 110.377 56.676 107.582 57.579C104.4 58.611 100.229 59.729 92.5323 63.212C92.5323 63.212 92.2313 66.308 91.8013 69.103L91.3283 72.285C91.3283 72.285 95.8433 69.963 99.4123 68.974C101.863 68.286 104.744 67.641 106.206 67.641C106.593 67.641 106.894 67.684 107.023 67.813C107.238 67.942 107.324 68.157 107.324 68.415C107.324 68.931 106.894 69.619 106.163 69.877C105.217 70.221 104.228 70.049 101.777 70.651C99.3693 71.253 94.9833 72.887 90.9843 75.596C90.9843 75.596 90.5113 80.068 90.5113 82.992C90.5113 83.551 90.5113 84.067 90.5543 84.454C90.6403 85.056 90.8553 85.615 90.8553 86.088C90.8553 86.346 90.7693 86.561 90.5973 86.776C90.3393 87.12 89.8663 87.292 89.4363 87.292C89.0493 87.292 88.6623 87.163 88.4043 86.905C88.3183 86.819 88.2753 86.346 88.2753 85.658C88.2753 83.551 88.6193 79.294 88.6193 76.542C88.6193 76.542 87.6733 76.112 87.6733 75.252C87.6733 74.392 87.9743 74.263 88.8773 73.446C88.8773 73.446 89.1783 70.307 89.3073 68.802L89.6513 64.373C89.6513 64.373 85.0933 66.093 84.2333 66.093C83.4593 65.921 83.1153 65.362 83.1153 64.803C83.1153 64.459 83.2013 64.158 83.3733 63.9C83.7603 63.384 87.5873 62.739 89.6943 61.836C89.6943 61.836 89.6943 61.75 89.6943 61.621C89.6943 61.062 89.7803 59.643 90.5543 59.342C90.7263 59.256 90.8983 59.256 91.0273 59.256C91.8443 59.256 92.3603 60.073 92.4463 60.804C92.4463 60.804 104.056 56.59 106.249 55.988C108.184 55.472 111.28 54.612 112.699 54.612C112.957 54.612 113.215 54.655 113.301 54.741C113.731 54.999 113.946 55.386 113.946 55.73Z" stroke="black" stroke-width="0.6" stroke-linejoin="round" mask="url(#path-1-outside-1_1_10)"/>
<path d="M120.975 71.468C120.76 73.016 118.481 85.013 115.901 86.217C115.428 86.432 114.955 86.561 114.568 86.561C109.494 86.561 109.365 71.167 109.322 69.576C109.322 68.544 109.709 68.2 110.182 68.2H110.397C111.515 68.415 111.687 69.275 111.687 69.834C111.687 70.436 111.644 70.995 111.644 71.554C111.644 78.434 113.149 83.895 114.611 83.895C114.869 83.895 115.17 83.68 115.471 83.164C117.621 79.38 118.352 72.414 118.395 71.296C118.395 70.694 118.438 69.748 119.771 69.748C120.889 69.748 120.975 71.468 120.975 71.468Z" stroke="black" stroke-width="0.6" stroke-linejoin="round" mask="url(#path-1-outside-1_1_10)"/>
<path d="M142.982 68.501C142.982 69.146 142.509 69.275 141.95 69.275C141.434 69.275 140.832 69.146 140.488 69.146C137.822 69.146 134.855 69.748 133.307 70.092C133.264 70.608 132.361 77.531 132.361 83.25C132.361 83.981 132.361 84.712 132.404 85.357C132.404 85.529 132.619 86.131 132.619 86.647C132.619 87.206 132.404 87.679 131.587 87.679H131.415C130.125 87.593 129.91 86.002 129.91 85.314C129.91 83.379 129.91 80.713 130.383 76.327C130.684 73.274 130.856 72.414 131.071 70.565C131.071 70.565 128.964 71.038 127.416 71.769C126.685 72.113 125.223 73.446 124.449 73.446C123.718 73.274 123.116 72.801 123.116 72.199C123.116 72.113 123.116 72.027 123.159 71.941C123.374 71.296 123.46 70.952 125.825 70.049C128.276 69.103 128.835 68.888 131.415 68.2C131.415 68.2 132.017 64.674 132.447 59.944V59.686C132.447 59.213 132.361 58.611 132.361 58.009C132.361 57.106 132.533 56.332 133.35 56.332C134.167 56.332 134.683 57.149 134.683 59.428C134.683 60.073 134.64 60.847 134.554 61.75C134.296 64.33 134.038 65.018 133.651 67.813C133.651 67.813 136.231 67.254 139.284 67.254C139.671 67.254 140.058 67.297 140.445 67.297C141.348 67.34 142.896 67.297 142.982 68.501Z" stroke="black" stroke-width="0.6" stroke-linejoin="round" mask="url(#path-1-outside-1_1_10)"/>
<path d="M154.377 71.468C154.162 73.016 151.883 85.013 149.303 86.217C148.83 86.432 148.357 86.561 147.97 86.561C142.896 86.561 142.767 71.167 142.724 69.576C142.724 68.544 143.111 68.2 143.584 68.2H143.799C144.917 68.415 145.089 69.275 145.089 69.834C145.089 70.436 145.046 70.995 145.046 71.554C145.046 78.434 146.551 83.895 148.013 83.895C148.271 83.895 148.572 83.68 148.873 83.164C151.023 79.38 151.754 72.414 151.797 71.296C151.797 70.694 151.84 69.748 153.173 69.748C154.291 69.748 154.377 71.468 154.377 71.468Z" stroke="black" stroke-width="0.6" stroke-linejoin="round" mask="url(#path-1-outside-1_1_10)"/>
<path d="M176.084 69.619C176.084 70.049 175.826 70.479 175.095 70.651C175.009 70.694 174.923 70.694 174.837 70.694C174.278 70.694 173.805 70.307 173.117 70.307C172.816 70.307 172.429 70.393 171.999 70.651C169.247 72.199 166.022 75.897 162.926 80.584C161.335 82.992 161.894 86.303 161.335 87.034C161.077 87.378 160.733 87.507 160.389 87.507C159.959 87.507 159.529 87.292 159.228 86.991C158.97 86.733 158.884 86.346 158.884 85.787C158.884 84.497 159.4 82.304 159.572 78.993C159.615 77.875 159.658 76.929 159.658 76.069C159.658 70.694 158.712 69.791 158.712 69.275C158.712 69.189 158.755 69.146 158.798 69.06C158.97 68.802 159.443 68.286 160.002 68.286C160.303 68.286 160.604 68.415 160.948 68.716C161.593 69.318 161.722 70.307 161.808 72.93C161.851 74.435 161.851 75.252 161.851 76.198V78.133C161.851 78.133 164.818 74.177 167.57 71.64C169.161 70.135 170.924 68.157 173.504 68.157C174.106 68.157 174.751 68.243 175.482 68.501C175.74 68.587 176.084 69.103 176.084 69.619Z" stroke="black" stroke-width="0.6" stroke-linejoin="round" mask="url(#path-1-outside-1_1_10)"/>
<path d="M186.628 71.038C186.628 71.038 186.585 71.038 186.499 71.038C186.026 71.038 184.134 71.081 181.898 72.242C179.705 73.36 178.372 75.123 178.372 75.123C178.372 75.123 180.78 74.994 183.446 73.36C184.564 72.715 185.295 72.242 186.628 71.038ZM195.099 78.477C195.099 79.079 194.669 79.724 194.11 80.111C193.164 80.627 186.241 86.948 181.382 86.948C180.694 86.948 180.049 86.819 179.49 86.561C176.695 85.271 174.717 81.874 174.717 78.692C174.717 78.176 174.76 77.703 174.889 77.187C175.921 72.328 181.554 68.974 186.069 68.974C187.488 68.974 188.735 69.275 189.767 69.963C189.896 70.006 189.939 70.135 189.939 70.264C189.939 71.339 186.284 74.091 183.833 75.553C181.167 77.187 178.544 77.445 177.34 77.531C177.34 77.531 177.211 78.004 177.211 78.778C177.211 79.681 177.426 81.014 178.372 82.476C179.146 83.723 180.092 84.755 181.812 84.755H181.984C185.381 84.626 191.917 79.294 192.347 78.692C192.605 78.219 193.078 77.101 193.809 77.101C194.024 77.101 194.196 77.144 194.454 77.316C194.884 77.617 195.099 78.047 195.099 78.477Z" stroke="black" stroke-width="0.6" stroke-linejoin="round" mask="url(#path-1-outside-1_1_10)"/>
</svg>
